<?xml version="1.0" encoding="UTF-8"?>
<svg width="26px" height="10px" viewBox="0 0 26 10" version="1.1" xmlns="http://www.w3.org/2000/svg" xmlns:xlink="http://www.w3.org/1999/xlink">
    <!-- Generator: Sketch 45.1 (43504) - http://www.bohemiancoding.com/sketch -->
    <title>icon/navigation/NEW</title>
    <desc>Created with Sketch.</desc>
    <defs></defs>
    <g id="Symbols" stroke="none" stroke-width="1" fill="none" fill-rule="evenodd">
        <g id="icon/navigation/NEW">
            <g>
                <rect id="Rectangle-10-Copy-2" fill="#FF3D00" x="0" y="0" width="26" height="10" rx="1"></rect>
                <path d="M4.15517241,2.87451737 C4.28160983,2.74324259 4.41283457,2.62451791 4.54885057,2.51833977 C4.68486658,2.41216163 4.82950115,2.32046371 4.98275862,2.24324324 C5.13601609,2.16602278 5.29884971,2.10617782 5.47126437,2.06370656 C5.64367902,2.02123531 5.83141661,2 6.03448276,2 C6.35632345,2 6.63888767,2.05405351 6.88218391,2.16216216 C7.12548014,2.27027081 7.33045894,2.42277894 7.49712644,2.61969112 C7.66379394,2.8166033 7.78927161,3.05308742 7.87356322,3.32915058 C7.95785483,3.60521374 8,3.90926475 8,4.24131274 L8,8 L6.77011494,8 L6.77011494,4.24131274 C6.77011494,3.84362736 6.67911968,3.53475014 6.49712644,3.31467181 C6.31513319,3.09459349 6.03831603,2.98455598 5.66666667,2.98455598 C5.39080322,2.98455598 5.13505865,3.04826191 4.89942529,3.17567568 C4.66379193,3.30308944 4.44252977,3.47683288 4.23563218,3.6969112 L4.23563218,8 L3,8 L3,2.09266409 L3.74712644,2.09266409 C3.91570966,2.09266409 4.02298828,2.17181388 4.06896552,2.33011583 L4.15517241,2.87451737 Z" id="new" fill="#FFFFFF"></path>
                <path d="M10.1588683,5.09990485 C10.1733769,5.43101973 10.2223427,5.71741078 10.3057671,5.95908658 C10.3891916,6.20076239 10.5007247,6.40152156 10.64037,6.56137012 C10.7800152,6.72121869 10.9468616,6.84015185 11.140914,6.91817317 C11.3349665,6.99619449 11.5516854,7.03520457 11.7910773,7.03520457 C12.0195876,7.03520457 12.2172643,7.00761207 12.3841132,6.95242626 C12.550962,6.89724045 12.6960458,6.83634667 12.8193689,6.7697431 C12.9426919,6.70313953 13.0478777,6.64224576 13.1349293,6.58705994 C13.2219808,6.53187413 13.3017769,6.50428164 13.3743199,6.50428164 C13.4686258,6.50428164 13.5411677,6.54234025 13.5919478,6.61845861 L13.9238303,7.06945766 C13.7859986,7.24072398 13.6300335,7.3853467 13.4559304,7.50333016 C13.2818272,7.62131363 13.0968454,7.71741162 12.9009793,7.79162702 C12.7051133,7.86584243 12.5038095,7.91912448 12.297062,7.95147479 C12.0903145,7.98382509 11.8890108,8 11.6931447,8 C11.3086669,8 10.9523049,7.93244597 10.6240479,7.79733587 C10.2957909,7.66222578 10.011064,7.46336953 9.76985854,7.20076118 C9.52865313,6.93815283 9.34004421,6.6127517 9.20402612,6.22454805 C9.06800803,5.8363444 9,5.38915572 9,4.8829686 C9,4.47954127 9.06075384,4.10276103 9.18226333,3.75261656 C9.30377282,3.40247208 9.47787337,3.0980032 9.70457018,2.83920076 C9.931267,2.58039833 10.2069262,2.37583329 10.531556,2.22549952 C10.8561859,2.07516576 11.2234292,2 11.6332971,2 C11.9742491,2 12.2898063,2.05803938 12.5799782,2.17411989 C12.8701502,2.29020039 13.1204197,2.46051267 13.3307943,2.68506185 C13.541169,2.90961102 13.705295,3.18458448 13.8231774,3.50999049 C13.9410597,3.83539649 14,4.20551648 14,4.62036156 C14,4.81065747 13.980051,4.93815382 13.9401523,5.00285442 C13.9002537,5.06755503 13.8277118,5.09990485 13.7225245,5.09990485 L10.1588683,5.09990485 Z M12.9499456,4.34633682 C12.9499456,4.14081724 12.9218356,3.94957272 12.8656148,3.77259753 C12.809394,3.59562233 12.7268776,3.44148496 12.6180631,3.31018078 C12.5092486,3.1788766 12.3741394,3.07611835 12.2127312,3.00190295 C12.0513231,2.92768755 11.8654345,2.8905804 11.6550598,2.8905804 C11.2306834,2.8905804 10.8969907,3.01807675 10.6539717,3.27307326 C10.4109527,3.52806978 10.2568012,3.88582072 10.1915125,4.34633682 L12.9499456,4.34633682 Z" id="Combined-Shape" fill="#FFFFFF"></path>
                <path d="M23,2.01174168 L21.3001949,8 L20.411306,8 C20.3073419,8 20.2345681,7.92367982 20.1929825,7.77103718 L19.1377518,4.04305284 C19.110028,3.93737716 19.0849037,3.83170307 19.0623782,3.7260274 C19.0398526,3.62035172 19.0199264,3.51663456 19.0025991,3.4148728 C18.9644789,3.62622415 18.9176958,3.83757233 18.8622482,4.04892368 L17.791423,7.77103718 C17.7533028,7.92367982 17.6718655,8 17.5471085,8 L16.6998051,8 L15,2.01174168 L15.8836907,2.01174168 C15.9703275,2.01174168 16.0422349,2.03620328 16.0994152,2.0851272 C16.1565955,2.13405113 16.1938487,2.19178049 16.2111761,2.25831703 L17.0948668,5.74559687 C17.1295215,5.90606734 17.1598439,6.06164308 17.185835,6.21232877 C17.211826,6.36301445 17.2352176,6.51271941 17.2560104,6.66144814 C17.2906651,6.51271941 17.327052,6.36301445 17.3651722,6.21232877 C17.4032924,6.06164308 17.4431447,5.90606734 17.4847303,5.74559687 L18.4775828,2.2407045 C18.4949102,2.17025405 18.5304307,2.11252469 18.5841455,2.06751468 C18.6378604,2.02250467 18.702837,2 18.7790773,2 L19.2677063,2 C19.3474121,2 19.4149878,2.02250467 19.4704353,2.06751468 C19.5258829,2.11252469 19.5622698,2.17025405 19.5795971,2.2407045 L20.5464587,5.74559687 C20.5880444,5.90606734 20.6270304,6.06262155 20.6634178,6.21526419 C20.6998053,6.36790683 20.7335931,6.52054718 20.7647823,6.67318982 C20.7890406,6.5244611 20.8150313,6.37377767 20.842755,6.22113503 C20.8704788,6.06849239 20.9034003,5.90998125 20.9415205,5.74559687 L21.8408057,2.25831703 C21.8615985,2.18786658 21.8997182,2.12915875 21.9551657,2.08219178 C22.0106132,2.03522481 22.0781889,2.01174168 22.1578947,2.01174168 L23,2.01174168 Z" id="Path" fill="#FFFFFF"></path>
                <path d="M4.15517241,2.87451737 C4.28160983,2.74324259 4.41283457,2.62451791 4.54885057,2.51833977 C4.68486658,2.41216163 4.82950115,2.32046371 4.98275862,2.24324324 C5.13601609,2.16602278 5.29884971,2.10617782 5.47126437,2.06370656 C5.64367902,2.02123531 5.83141661,2 6.03448276,2 C6.35632345,2 6.63888767,2.05405351 6.88218391,2.16216216 C7.12548014,2.27027081 7.33045894,2.42277894 7.49712644,2.61969112 C7.66379394,2.8166033 7.78927161,3.05308742 7.87356322,3.32915058 C7.95785483,3.60521374 8,3.90926475 8,4.24131274 L8,8 L6.77011494,8 L6.77011494,4.24131274 C6.77011494,3.84362736 6.67911968,3.53475014 6.49712644,3.31467181 C6.31513319,3.09459349 6.03831603,2.98455598 5.66666667,2.98455598 C5.39080322,2.98455598 5.13505865,3.04826191 4.89942529,3.17567568 C4.66379193,3.30308944 4.44252977,3.47683288 4.23563218,3.6969112 L4.23563218,8 L3,8 L3,2.09266409 L3.74712644,2.09266409 C3.91570966,2.09266409 4.02298828,2.17181388 4.06896552,2.33011583 L4.15517241,2.87451737 Z" id="new" fill="#FFFFFF"></path>
                <path d="M10.1588683,5.09990485 C10.1733769,5.43101973 10.2223427,5.71741078 10.3057671,5.95908658 C10.3891916,6.20076239 10.5007247,6.40152156 10.64037,6.56137012 C10.7800152,6.72121869 10.9468616,6.84015185 11.140914,6.91817317 C11.3349665,6.99619449 11.5516854,7.03520457 11.7910773,7.03520457 C12.0195876,7.03520457 12.2172643,7.00761207 12.3841132,6.95242626 C12.550962,6.89724045 12.6960458,6.83634667 12.8193689,6.7697431 C12.9426919,6.70313953 13.0478777,6.64224576 13.1349293,6.58705994 C13.2219808,6.53187413 13.3017769,6.50428164 13.3743199,6.50428164 C13.4686258,6.50428164 13.5411677,6.54234025 13.5919478,6.61845861 L13.9238303,7.06945766 C13.7859986,7.24072398 13.6300335,7.3853467 13.4559304,7.50333016 C13.2818272,7.62131363 13.0968454,7.71741162 12.9009793,7.79162702 C12.7051133,7.86584243 12.5038095,7.91912448 12.297062,7.95147479 C12.0903145,7.98382509 11.8890108,8 11.6931447,8 C11.3086669,8 10.9523049,7.93244597 10.6240479,7.79733587 C10.2957909,7.66222578 10.011064,7.46336953 9.76985854,7.20076118 C9.52865313,6.93815283 9.34004421,6.6127517 9.20402612,6.22454805 C9.06800803,5.8363444 9,5.38915572 9,4.8829686 C9,4.47954127 9.06075384,4.10276103 9.18226333,3.75261656 C9.30377282,3.40247208 9.47787337,3.0980032 9.70457018,2.83920076 C9.931267,2.58039833 10.2069262,2.37583329 10.531556,2.22549952 C10.8561859,2.07516576 11.2234292,2 11.6332971,2 C11.9742491,2 12.2898063,2.05803938 12.5799782,2.17411989 C12.8701502,2.29020039 13.1204197,2.46051267 13.3307943,2.68506185 C13.541169,2.90961102 13.705295,3.18458448 13.8231774,3.50999049 C13.9410597,3.83539649 14,4.20551648 14,4.62036156 C14,4.81065747 13.980051,4.93815382 13.9401523,5.00285442 C13.9002537,5.06755503 13.8277118,5.09990485 13.7225245,5.09990485 L10.1588683,5.09990485 Z M12.9499456,4.34633682 C12.9499456,4.14081724 12.9218356,3.94957272 12.8656148,3.77259753 C12.809394,3.59562233 12.7268776,3.44148496 12.6180631,3.31018078 C12.5092486,3.1788766 12.3741394,3.07611835 12.2127312,3.00190295 C12.0513231,2.92768755 11.8654345,2.8905804 11.6550598,2.8905804 C11.2306834,2.8905804 10.8969907,3.01807675 10.6539717,3.27307326 C10.4109527,3.52806978 10.2568012,3.88582072 10.1915125,4.34633682 L12.9499456,4.34633682 Z" id="Combined-Shape" fill="#FFFFFF"></path>
                <path d="M23,2.01174168 L21.3001949,8 L20.411306,8 C20.3073419,8 20.2345681,7.92367982 20.1929825,7.77103718 L19.1377518,4.04305284 C19.110028,3.93737716 19.0849037,3.83170307 19.0623782,3.7260274 C19.0398526,3.62035172 19.0199264,3.51663456 19.0025991,3.4148728 C18.9644789,3.62622415 18.9176958,3.83757233 18.8622482,4.04892368 L17.791423,7.77103718 C17.7533028,7.92367982 17.6718655,8 17.5471085,8 L16.6998051,8 L15,2.01174168 L15.8836907,2.01174168 C15.9703275,2.01174168 16.0422349,2.03620328 16.0994152,2.0851272 C16.1565955,2.13405113 16.1938487,2.19178049 16.2111761,2.25831703 L17.0948668,5.74559687 C17.1295215,5.90606734 17.1598439,6.06164308 17.185835,6.21232877 C17.211826,6.36301445 17.2352176,6.51271941 17.2560104,6.66144814 C17.2906651,6.51271941 17.327052,6.36301445 17.3651722,6.21232877 C17.4032924,6.06164308 17.4431447,5.90606734 17.4847303,5.74559687 L18.4775828,2.2407045 C18.4949102,2.17025405 18.5304307,2.11252469 18.5841455,2.06751468 C18.6378604,2.02250467 18.702837,2 18.7790773,2 L19.2677063,2 C19.3474121,2 19.4149878,2.02250467 19.4704353,2.06751468 C19.5258829,2.11252469 19.5622698,2.17025405 19.5795971,2.2407045 L20.5464587,5.74559687 C20.5880444,5.90606734 20.6270304,6.06262155 20.6634178,6.21526419 C20.6998053,6.36790683 20.7335931,6.52054718 20.7647823,6.67318982 C20.7890406,6.5244611 20.8150313,6.37377767 20.842755,6.22113503 C20.8704788,6.06849239 20.9034003,5.90998125 20.9415205,5.74559687 L21.8408057,2.25831703 C21.8615985,2.18786658 21.8997182,2.12915875 21.9551657,2.08219178 C22.0106132,2.03522481 22.0781889,2.01174168 22.1578947,2.01174168 L23,2.01174168 Z" id="Path" fill="#FFFFFF"></path>
            </g>
        </g>
    </g>
</svg>